<?xml version="1.0" encoding="UTF-8"?>
<svg id="Layer_1" data-name="Layer 1" xmlns="http://www.w3.org/2000/svg" viewBox="0 0 41.77 41.66">
  <defs>
    <style>
      .cls-1 {
        fill: #eb484c;
      }

      .cls-2 {
        fill: #4fadde;
      }

      .cls-3 {
        fill: #f3ba42;
      }
    </style>
  </defs>
  <path class="cls-3" d="M1.61,17.46c-3.89-5.61.38-8.29,1.45-9.1C4.28,7.44,21.07,0,21.07,0c0,0,16.19,7.41,16.71,7.69s3.45,1.72,3.9,5-1.18,4.8-1.18,4.8l-19.39-8.83L1.61,17.46Z"/>
  <path class="cls-2" d="M1.61,29.54c-3.89-5.61.38-8.29,1.45-9.1,1.22-.91,18.01-8.36,18.01-8.36,0,0,16.19,7.41,16.71,7.69s3.45,1.72,3.9,5-1.18,4.8-1.18,4.8l-19.39-8.83L1.61,29.54Z"/>
  <path class="cls-1" d="M1.61,41.62c-3.89-5.61.38-8.29,1.45-9.1,1.22-.91,18.01-8.36,18.01-8.36,0,0,16.19,7.41,16.71,7.69s3.45,1.72,3.9,5-1.18,4.8-1.18,4.8l-19.39-8.83L1.61,41.62Z"/>
</svg>