<?xml version="1.0" encoding="UTF-8"?>
<svg id="Layer_1" data-name="Layer 1" xmlns="http://www.w3.org/2000/svg" viewBox="0 0 44 44">
  <defs>
    <style>
      .cls-1 {
        fill: #26587d;
      }
    </style>
  </defs>
  <path class="cls-1" d="M30.72,22.79l-16.26,16.44s-.04-.03-.05-.04l-3.99,3.8,1.45-3.68s.84-1.67-.79-3.34l-5.25-5.25C.95,25.84.95,17.85,5.83,12.97l7.49-7.49c3.51-3.51,8.63-4.5,13.05-2.95-.09.08-.17.15-.26.24l-15.9,15.9c-1.8,1.8-1.8,4.75,0,6.56l2.52,2.52c.14.14.28.27.44.38,1.82,1.41,4.46,1.28,6.12-.38l.66-.66,7.45-7.53c.08-.08.16-.14.26-.18.29-.12.63-.07.87.16l2.19,2.13c.31.3.32.81.01,1.12Z"/>
  <path class="cls-1" d="M38.55,30.72l-7.49,7.49c-3.51,3.51-8.62,4.49-13.03,2.96.04-.04.09-.08.13-.12l15.56-15.74c1.77-1.78,1.74-4.68-.06-6.43l-2.52-2.45c-.09-.09-.19-.18-.29-.26-1.64-1.34-4-1.38-5.68-.12l-3.66,3.63-4.96,4.92c-.31.31-.83.31-1.14,0l-2.19-2.19c-.31-.31-.31-.83,0-1.14L29.97,4.52s.04.03.06.05l2.65-2.64-.78,2.87s-.28,1.06.22,1.75l6.42,6.42c4.88,4.88,4.88,12.87,0,17.75Z"/>
</svg>