<?xml version="1.0" encoding="UTF-8"?>
<svg id="Layer_2" data-name="Layer 2" xmlns="http://www.w3.org/2000/svg" viewBox="0 0 734.64 1010.95">
  <defs>
    <style>
      .cls-1 {
        fill: #fff;
      }
    </style>
  </defs>
  <g id="Layer_1-2" data-name="Layer 1">
    <g>
      <path class="cls-1" d="M476.31,588.96c-1.18,3.55-3.31,6.75-6.04,8.88.95-.95,1.54-2.25,2.13-3.55.95-2.13,2.13-3.91,3.91-5.33Z"/>
      <path class="cls-1" d="M734.64,530.15c0,40.47-21.66,75.74-54.2,95.26l-2.96,1.89-1.07.59L76.09,1008.23l-.83.47c-.12.12-.24.12-.35.12-2.13,1.42-4.62,2.13-7.34,2.13-8.17,0-14.67-6.51-14.67-14.67,0-3.55,1.3-6.75,3.43-9.35,0-.36.12-.71.24-.83l412.4-386.72c.47-.36.83-.83,1.18-1.3q.12-.12.12-.24c2.72-2.13,4.85-5.33,6.04-8.88v-.12c.59-1.89.95-3.91.95-6.04,0-11.24-8.99-20.24-20.12-20.24H111.12c-61.3,0-111.12-49.82-111.12-111.12,0-42.25,23.55-78.93,58.22-97.86l.47-.24L615.23,2.49l.47-.36c.12-.12.24-.12.36-.12h.12c2.13-1.3,4.62-2.01,7.34-2.01,8.05,0,14.67,6.51,14.67,14.67,0,3.55-1.3,6.86-3.43,9.35,0,.35-.12.59-.24.71l-368.86,357.5c-.24.24-.47.59-.59.83-3.08,2.37-5.44,5.68-6.63,9.59-.71,1.89-1.06,4.02-1.06,6.15,0,11.12,8.99,20.12,20.12,20.12h346.02c61.42,0,111.12,49.82,111.12,111.24Z"/>
      <path class="cls-1" d="M476.31,588.96c-1.18,3.55-3.31,6.75-6.04,8.88.95-.95,1.54-2.25,2.13-3.55.95-2.13,2.13-3.91,3.91-5.33Z"/>
    </g>
  </g>
</svg>